<?xml version="1.0" encoding="iso-8859-1"?>
<!-- Generator: Adobe Illustrator 18.1.1, SVG Export Plug-In . SVG Version: 6.00 Build 0)  -->
<svg version="1.1" id="Capa_1" xmlns="http://www.w3.org/2000/svg" xmlns:xlink="http://www.w3.org/1999/xlink" x="0px" y="0px"
	 viewBox="0 0 80 80" style="enable-background:new 0 0 80 80;" xml:space="preserve">
<g id="_x37_7_Essential_Icons_49_">
	<path id="Printer" d="M76,53V29 M76,53V29 M0,53V29 M80,53V29 M53,52H27c-1.1,0-2,0.9-2,2s0.9,2,2,2h26c1.1,0,2-0.9,2-2
		S54.1,52,53,52z M53,62H27c-1.1,0-2,0.9-2,2s0.9,2,2,2h26c1.1,0,2-0.9,2-2S54.1,62,53,62z M53,52H27c-1.1,0-2,0.9-2,2s0.9,2,2,2h26
		c1.1,0,2-0.9,2-2S54.1,52,53,52z M53,62H27c-1.1,0-2,0.9-2,2s0.9,2,2,2h26c1.1,0,2-0.9,2-2S54.1,62,53,62z M53,62H27
		c-1.1,0-2,0.9-2,2s0.9,2,2,2h26c1.1,0,2-0.9,2-2S54.1,62,53,62z M53,52H27c-1.1,0-2,0.9-2,2s0.9,2,2,2h26c1.1,0,2-0.9,2-2
		S54.1,52,53,52z M27,56h26c1.1,0,2-0.9,2-2s-0.9-2-2-2H27c-1.1,0-2,0.9-2,2S25.9,56,27,56z M53,62H27c-1.1,0-2,0.9-2,2s0.9,2,2,2
		h26c1.1,0,2-0.9,2-2S54.1,62,53,62z M72,21h-7V7c0-1.1-0.9-2-2-2H17c-1.1,0-2,0.9-2,2v14H8c-4.4,0-8,3.6-8,8v24c0,4.4,3.6,8,8,8h7
		v12c0,1.1,0.9,2,2,2h46c1.1,0,2-0.9,2-2V61h7c4.4,0,8-3.6,8-8V29C80,24.6,76.4,21,72,21z M19,9h42v12H19V9z M61,71H19V47h42V71z
		 M76,53c0,2.2-1.8,4-4,4h-7V45c0-1.1-0.9-2-2-2H17c-1.1,0-2,0.9-2,2v12H8c-2.2,0-4-1.8-4-4V29c0-2.2,1.8-4,4-4h64c2.2,0,4,1.8,4,4
		V53z M27,56h26c1.1,0,2-0.9,2-2s-0.9-2-2-2H27c-1.1,0-2,0.9-2,2S25.9,56,27,56z M27,66h26c1.1,0,2-0.9,2-2s-0.9-2-2-2H27
		c-1.1,0-2,0.9-2,2S25.9,66,27,66z M53,62H27c-1.1,0-2,0.9-2,2s0.9,2,2,2h26c1.1,0,2-0.9,2-2S54.1,62,53,62z M53,52H27
		c-1.1,0-2,0.9-2,2s0.9,2,2,2h26c1.1,0,2-0.9,2-2S54.1,52,53,52z M53,52H27c-1.1,0-2,0.9-2,2s0.9,2,2,2h26c1.1,0,2-0.9,2-2
		S54.1,52,53,52z M53,62H27c-1.1,0-2,0.9-2,2s0.9,2,2,2h26c1.1,0,2-0.9,2-2S54.1,62,53,62z"/>
</g>
<g>
</g>
<g>
</g>
<g>
</g>
<g>
</g>
<g>
</g>
<g>
</g>
<g>
</g>
<g>
</g>
<g>
</g>
<g>
</g>
<g>
</g>
<g>
</g>
<g>
</g>
<g>
</g>
<g>
</g>
</svg>
